<?xml version="1.0" encoding="UTF-8" standalone="no"?>
<!DOCTYPE svg PUBLIC "-//W3C//DTD SVG 1.1//EN" "http://www.w3.org/Graphics/SVG/1.1/DTD/svg11.dtd">
<!-- Created with Vectornator (http://vectornator.io/) -->
<svg height="100%" stroke-miterlimit="10" style="fill-rule:nonzero;clip-rule:evenodd;stroke-linecap:round;stroke-linejoin:round;" version="1.1" viewBox="0 0 1000 1000" width="100%" xml:space="preserve" xmlns="http://www.w3.org/2000/svg" xmlns:vectornator="http://vectornator.io" xmlns:xlink="http://www.w3.org/1999/xlink">
<defs/>
<g id="Calque-1" vectornator:layerName="Calque 1">
<path d="M500.025 985.795C779.305 912.353 985.65 653.366 985.65 345.172C985.65 304.773 982.019 265.236 975.228 226.835C856.938 96.2779 687.812 14.4476 499.924 14.4476C312.078 14.4475 143.008 96.2244 24.7217 226.731C17.9194 265.164 14.2999 304.737 14.2999 345.172C14.2998 653.365 220.644 912.353 499.924 985.795C499.956 985.803 499.994 985.787 500.025 985.795Z" fill="#ffffff" fill-rule="nonzero" opacity="1" stroke="#000000" stroke-linecap="round" stroke-linejoin="round" stroke-width="0"/>
<path d="M499.948 0C306.561-5.65732e-05 132.504 84.1891 10.7292 218.545C3.72623 258.111 6.35783e-05 298.852 0 340.479C-8.89628e-05 657.763 212.431 924.389 499.948 999.998C499.98 1000.01 500.02 999.989 500.052 999.998C787.569 924.389 1000 657.763 1000 340.479C1000 298.888 996.262 258.185 989.271 218.651C867.492 84.2437 693.378-6.92706e-05 499.948 0ZM499.948 149.332C635.624 149.332 757.758 208.377 843.177 302.654C848.081 330.384 850.729 358.973 850.729 388.146C850.729 610.697 701.724 797.685 500.052 850.719C500.029 850.712 499.971 850.725 499.948 850.719C298.276 797.685 149.271 610.697 149.271 388.146C149.271 358.948 151.911 330.353 156.823 302.601C242.239 208.36 364.301 149.332 499.948 149.332Z" fill="#0f1d3f" fill-rule="nonzero" opacity="1" stroke="#000000" stroke-linecap="round" stroke-linejoin="round" stroke-width="0"/>
<path d="M499.931 149.319C364.284 149.319 242.256 208.382 156.839 302.622C151.928 330.375 149.278 358.96 149.278 388.158C149.278 605.925 291.961 789.513 487.038 846.997C364.603 760.87 284.286 616.805 284.286 453.471C284.286 424.272 286.891 395.688 291.803 367.935C377.22 273.694 499.292 214.631 634.939 214.631C680.021 214.631 723.548 221.306 764.789 233.471C689.489 180.472 598.299 149.319 499.931 149.319Z" fill="#5309cd" fill-rule="nonzero" opacity="1" stroke="#000000" stroke-linecap="round" stroke-linejoin="round" stroke-width="0"/>
</g>
</svg>
